<svg width="24" height="24" viewBox="0 0 24 24" fill="none" xmlns="http://www.w3.org/2000/svg">
<g id="layers_clear_24px">
<g id="&#226;&#134;&#179; Light Color">
<path id="Mask" opacity="0.5" d="M12 13.47L12.67 12.94L7.64999 7.92L6.25999 9L12 13.47Z" fill="#1E3E0A"/>
</g>
<g id="&#226;&#134;&#179; Light Color_2">
<path id="Mask_2" opacity="0.5" d="M12 4.53L10.83 5.44L15.85 10.47L17.74 9L12 4.53Z" fill="#1E3E0A"/>
</g>
<g id="&#226;&#134;&#179; Dark Color">
<path id="Mask_3" d="M12 4.53L17.74 9L15.85 10.47L17.28 11.89L21 9L12 2L9.41 4.02L10.83 5.44L12 4.53Z" fill="#1E3E0A"/>
</g>
<g id="&#226;&#134;&#179; Dark Color_2">
<path id="Mask_4" d="M21 14.07L19.37 12.8L18.7 13.32L20.13 14.75L21 14.07Z" fill="#1E3E0A"/>
</g>
<g id="&#226;&#134;&#179; Dark Color_3">
<path id="Mask_5" fill-rule="evenodd" clip-rule="evenodd" d="M2 2.27L3.41 0.860001L22.14 19.59L20.73 21L16.95 17.22L12 21.07L3 14.07L4.62 12.81L11.99 18.54L15.52 15.79L14.1 14.37L12 16L3 9L6.22 6.49L2 2.27ZM6.26 9L12 13.47L12.67 12.94L7.65 7.92L6.26 9Z" fill="#1E3E0A"/>
</g>
</g>
</svg>
