<svg width="24" height="24" viewBox="0 0 24 24" fill="none" xmlns="http://www.w3.org/2000/svg">
<g id="not_listed_location_24px">
<g id="&#226;&#134;&#179; Light Color">
<path id="Mask" opacity="0.5" fill-rule="evenodd" clip-rule="evenodd" d="M6 9C6 12.54 9.82 17.86 12 20.47C13.75 18.36 18 12.84 18 9C18 5.69 15.31 3 12 3C8.69 3 6 5.69 6 9ZM12.88 15.75H11.13V14H12.88V15.75ZM14.138 10.8181C14.8099 10.229 15.5 9.62397 15.5 8.5C15.5 6.57 13.93 5 12 5C10.07 5 8.5 6.57 8.5 8.5H10.25C10.25 7.54 11.04 6.75 12 6.75C12.96 6.75 13.75 7.54 13.75 8.5C13.75 9.27523 13.2417 9.66631 12.6728 10.104C11.9502 10.6599 11.13 11.2909 11.13 12.88H12.88C12.88 11.9211 13.5008 11.3768 14.138 10.8181Z" fill="#1E3E0A"/>
</g>
<g id="&#226;&#134;&#179; Dark Color">
<path id="Mask_2" fill-rule="evenodd" clip-rule="evenodd" d="M11.26 22.67C10.96 22.34 4 14.57 4 9C4 4.59 7.59 1 12 1C16.41 1 20 4.59 20 9C20 14.57 13.04 22.34 12.74 22.67L12 23.49L11.26 22.67ZM12 20.47C13.75 18.36 18 12.83 18 9C18 5.69 15.31 3 12 3C8.69 3 6 5.69 6 9C6 12.54 9.82 17.86 12 20.47Z" fill="#1E3E0A"/>
</g>
<g id="&#226;&#134;&#179; Dark Color_2">
<path id="Mask_3" d="M11.13 14H12.88V15.75H11.13V14Z" fill="#1E3E0A"/>
</g>
<g id="&#226;&#134;&#179; Dark Color_3">
<path id="Mask_4" d="M8.5 8.5H10.25C10.25 7.54 11.04 6.75 12 6.75C12.96 6.75 13.75 7.54 13.75 8.5C13.75 10.26 11.13 10.04 11.13 12.88H12.88C12.88 10.91 15.5 10.69 15.5 8.5C15.5 6.57 13.93 5 12 5C10.07 5 8.5 6.57 8.5 8.5Z" fill="#1E3E0A"/>
</g>
</g>
</svg>
