<svg width="24" height="24" viewBox="0 0 24 24" fill="none" xmlns="http://www.w3.org/2000/svg">
<g id="my_location_24px">
<g id="&#226;&#134;&#179; Dark Color">
<path id="Mask" fill-rule="evenodd" clip-rule="evenodd" d="M13 1V3.06C17.17 3.52 20.48 6.83 20.94 11H23V13H20.94C20.48 17.17 17.17 20.48 13 20.94V23H11V20.94C6.83 20.48 3.52 17.17 3.06 13H1V11H3.06C3.52 6.83 6.83 3.52 11 3.06V1H13ZM5 12C5 15.87 8.13 19 12 19C15.87 19 19 15.87 19 12C19 8.13 15.87 5 12 5C8.13 5 5 8.13 5 12Z" fill="#1E3E0A"/>
</g>
<g id="&#226;&#134;&#179; Light Color">
<path id="Mask_2" opacity="0.5" d="M12 14C13.1046 14 14 13.1046 14 12C14 10.8954 13.1046 10 12 10C10.8954 10 10 10.8954 10 12C10 13.1046 10.8954 14 12 14Z" fill="#1E3E0A"/>
</g>
<g id="&#226;&#134;&#179; Dark Color_2">
<path id="Mask_3" fill-rule="evenodd" clip-rule="evenodd" d="M8 12C8 9.79 9.79 8 12 8C14.21 8 16 9.79 16 12C16 14.21 14.21 16 12 16C9.79 16 8 14.21 8 12ZM10 12C10 13.1 10.9 14 12 14C13.1 14 14 13.1 14 12C14 10.9 13.1 10 12 10C10.9 10 10 10.9 10 12Z" fill="#1E3E0A"/>
</g>
</g>
</svg>
